<svg id="Capa_1" data-name="Capa 1" xmlns="http://www.w3.org/2000/svg" viewBox="0 0 346.22 426.37"><defs><style>.cls-1{fill:#fff;}</style></defs><path class="cls-1" d="M566.66,170.16c6.08,2.5,12.75,4.1,18.11,7.67,11.73,7.81,16.47,19.71,16.57,33.58,0,3.31,0,6.62,0,10.58H606c14.7,0,29.41-.12,44.11,0,17.59.18,30.6,7.74,37.61,24.31,7.9,18.67-1.84,41.71-20.82,48.84-3.77,1.41-4.75,3.28-4.74,7.14q.18,119,.09,238c0,12.35-2.49,24-9.68,34.24-9.9,14.17-23.59,21.53-40.87,21.78-14.56.21-29.13,0-43.7,0-47.44,0-94.89-.36-142.33.13-29.49.31-52.32-21.89-52.91-52-.48-24.82-.13-49.66-.13-74.48q0-84.48.07-168.95c0-3.15-.9-4.47-3.89-5.56-16.14-5.86-26.49-23.12-24.25-39.88,2.39-17.94,16.45-32,34.17-33.1,12.85-.8,25.78-.46,38.67-.6,5.13-.05,10.26,0,15.74,0,.3-5.77.36-11.4.93-17a38.59,38.59,0,0,1,32.39-34.2,12.77,12.77,0,0,0,1.92-.65Zm-174,128v3.7q0,119.65,0,239.32a53.43,53.43,0,0,0,.65,8.28c2.5,16,14.89,26.9,31,26.92q93.25.09,186.49,0a29.27,29.27,0,0,0,20.83-8c8-7.57,10.66-17.25,10.67-27.87q0-119,0-238.06v-4.33ZM517.27,278q65.34,0,130.68,0a64,64,0,0,0,6.64-.28,17.41,17.41,0,0,0,15.59-16.27c.72-8.48-4.69-16.51-12.85-18.56a35.8,35.8,0,0,0-8.66-.83q-131.29-.06-262.59,0a43.07,43.07,0,0,0-6.62.45c-8.13,1.27-14,7.73-14.89,16.16a17.47,17.47,0,0,0,11.8,18.09,33,33,0,0,0,9.82,1.21Q451.73,278,517.27,278Zm63.8-56.19c0-5.13.39-9.86-.08-14.49-1-9.79-8.53-17-18.33-17q-45.17-.28-90.33,0a18.23,18.23,0,0,0-18.28,15.7c-.75,5.1-.13,10.41-.13,15.85Z" transform="translate(-344.28 -170.16)"/><path class="cls-1" d="M468.47,429.12v90.26c0,1.39,0,2.78-.08,4.16-.49,5.39-4.18,9.17-9.25,9.54s-9.18-3-10.25-8.35a23.79,23.79,0,0,1-.38-4.54q0-91.31,0-182.61c0-8.5,3.92-13.16,10.66-12.77,5.26.3,9,4.13,9.24,9.89.2,4,.07,8,.07,12.06Z" transform="translate(-344.28 -170.16)"/><path class="cls-1" d="M507.48,428.6q0-46,0-91.92c0-7.14,3.27-11.34,9-11.83a9.33,9.33,0,0,1,10.38,7.49,25.87,25.87,0,0,1,.56,5.76q0,90.89,0,181.77a25.18,25.18,0,0,1-.59,5.75,9.68,9.68,0,0,1-18.79.25,24.11,24.11,0,0,1-.56-5.76Q507.46,474.36,507.48,428.6Z" transform="translate(-344.28 -170.16)"/><path class="cls-1" d="M566.41,429.07q0-45.54,0-91.09c0-8.61,3.36-13.13,9.77-13.23s10.21,4.66,10.21,13.31q0,90.88,0,181.77c0,8.47-3.5,13.14-9.88,13.28s-10.1-4.57-10.1-13.36Q566.4,474.41,566.41,429.07Z" transform="translate(-344.28 -170.16)"/></svg>